<?xml version="1.0" encoding="UTF-8"?>
<!DOCTYPE svg PUBLIC "-//W3C//DTD SVG 1.1//EN" "http://www.w3.org/Graphics/SVG/1.1/DTD/svg11.dtd">
<!-- Creator: CorelDRAW -->
<svg xmlns="http://www.w3.org/2000/svg" xml:space="preserve" width="1.70666in" height="1.70666in" version="1.1" style="shape-rendering:geometricPrecision; text-rendering:geometricPrecision; image-rendering:optimizeQuality; fill-rule:evenodd; clip-rule:evenodd"
viewBox="0 0 1707 1707"
 xmlns:xlink="http://www.w3.org/1999/xlink">
 <defs>
  <style type="text/css">
   <![CDATA[
    .fil1 {fill:#333333}
    .fil4 {fill:#DF5A49}
    .fil3 {fill:#E3B486}
    .fil0 {fill:#E8F3DB}
    .fil2 {fill:#FCBE37}
   ]]>
  </style>
 </defs>
 <g id="Layer_x0020_1">
  <metadata id="CorelCorpID_0Corel-Layer"/>
  <path class="fil0" d="M1667 1640l-1162 0c-22,0 -40,-18 -40,-40l0 -1493c0,-22 18,-40 40,-40l1162 0c22,0 40,18 40,40l0 1493c0,22 -18,40 -40,40z"/>
  <path class="fil1" d="M1083 380l-406 0c-22,0 -40,-18 -40,-40 0,-23 18,-40 40,-40l406 0c22,0 40,17 40,40 0,22 -18,40 -40,40z"/>
  <path class="fil1" d="M996 567l-319 0c-22,0 -40,-18 -40,-40 0,-22 18,-40 40,-40l319 0c23,0 40,18 40,40 0,22 -17,40 -40,40z"/>
  <path class="fil1" d="M1323 568l0 0c-11,0 -22,-4 -29,-13l-86 -95c-15,-17 -14,-42 3,-57 16,-14 42,-13 56,3l56 63 142 -158c15,-17 40,-18 57,-3 16,15 17,40 3,56l-172 191c-7,9 -18,13 -30,13z"/>
  <path class="fil1" d="M1083 800l-406 0c-22,0 -40,-18 -40,-40 0,-22 18,-40 40,-40l406 0c22,0 40,18 40,40 0,22 -18,40 -40,40z"/>
  <path class="fil1" d="M996 987l-319 0c-22,0 -40,-18 -40,-40 0,-22 18,-40 40,-40l319 0c23,0 40,18 40,40 0,22 -17,40 -40,40z"/>
  <path class="fil1" d="M1323 989c-11,0 -22,-5 -29,-13l-86 -96c-15,-16 -14,-42 3,-56 16,-15 42,-14 56,3l56 62 142 -158c15,-16 40,-18 57,-3 16,15 17,40 3,57l-172 191c-7,8 -18,13 -30,13z"/>
  <path class="fil1" d="M1083 1220l-406 0c-22,0 -40,-18 -40,-40 0,-22 18,-40 40,-40l406 0c22,0 40,18 40,40 0,22 -18,40 -40,40z"/>
  <path class="fil1" d="M996 1407l-319 0c-22,0 -40,-18 -40,-40 0,-22 18,-40 40,-40l319 0c23,0 40,18 40,40 0,22 -17,40 -40,40z"/>
  <path class="fil1" d="M1323 1409c-11,0 -22,-5 -29,-13l-86 -96c-15,-16 -14,-41 3,-56 16,-15 42,-14 56,3l56 62 142 -158c15,-16 40,-17 57,-3 16,15 17,40 3,57l-172 191c-7,8 -18,13 -30,13z"/>
  <g id="_299367128">
   <path class="fil2" d="M321 1327l-281 0c-22,0 -40,-18 -40,-40l0 -957c0,-23 18,-40 40,-40l281 0c22,0 40,17 40,40l0 957c0,22 -18,40 -40,40z"/>
   <path class="fil3" d="M182 1640c-16,0 -30,-9 -36,-23l-142 -313c-3,-5 -4,-11 -4,-17l361 0c0,6 -1,11 -3,17l-139 312c-7,15 -21,24 -37,24 0,0 0,0 0,0z"/>
   <path class="fil4" d="M0 330l0 -223c0,-22 18,-40 40,-40l281 0c22,0 40,18 40,40l0 223 0 0 -361 0z"/>
   <path class="fil1" d="M269 1502l-176 0 53 115c6,14 20,23 36,23l0 0c16,0 30,-9 37,-24l50 -114z"/>
  </g>
 </g>
</svg>
